{
    "asset" : {
        "generator" : "Khronos glTF Blender I/O v1.7.33",
        "version" : "2.0"
    },
    "scene" : 0,
    "scenes" : [
        {
            "name" : "Scene",
            "nodes" : [
                0,
                1
            ]
        }
    ],
    "nodes" : [
        {
            "mesh" : 0,
            "name" : "Cube"
        },
        {
            "mesh" : 1,
            "name" : "Sphere",
            "scale" : [
                -0.11600947380065918,
                -0.11600947380065918,
                -0.11600947380065918
            ]
        }
    ],
    "meshes" : [
        {
            "name" : "Cube.001",
            "primitives" : [
                {
                    "attributes" : {
                        "POSITION" : 0,
                        "NORMAL" : 1,
                        "TEXCOORD_0" : 2
                    },
                    "indices" : 3
                }
            ]
        },
        {
            "name" : "Sphere",
            "primitives" : [
                {
                    "attributes" : {
                        "POSITION" : 4,
                        "NORMAL" : 5,
                        "TEXCOORD_0" : 6
                    },
                    "indices" : 7
                }
            ]
        }
    ],
    "accessors" : [
        {
            "bufferView" : 0,
            "componentType" : 5126,
            "count" : 18422,
            "max" : [
                0.19228146970272064,
                0.19225282967090607,
                0.19225835800170898
            ],
            "min" : [
                -0.1922435164451599,
                -0.1922721564769745,
                -0.19226662814617157
            ],
            "type" : "VEC3"
        },
        {
            "bufferView" : 1,
            "componentType" : 5126,
            "count" : 18422,
            "type" : "VEC3"
        },
        {
            "bufferView" : 2,
            "componentType" : 5126,
            "count" : 18422,
            "type" : "VEC2"
        },
        {
            "bufferView" : 3,
            "componentType" : 5123,
            "count" : 69696,
            "type" : "SCALAR"
        },
        {
            "bufferView" : 4,
            "componentType" : 5126,
            "count" : 1984,
            "max" : [
                0.9999997019767761,
                0.9999987483024597,
                1
            ],
            "min" : [
                -0.9999990463256836,
                -0.9999994039535522,
                -1
            ],
            "type" : "VEC3"
        },
        {
            "bufferView" : 5,
            "componentType" : 5126,
            "count" : 1984,
            "type" : "VEC3"
        },
        {
            "bufferView" : 6,
            "componentType" : 5126,
            "count" : 1984,
            "type" : "VEC2"
        },
        {
            "bufferView" : 7,
            "componentType" : 5123,
            "count" : 2880,
            "type" : "SCALAR"
        }
    ],
    "bufferViews" : [
        {
            "buffer" : 0,
            "byteLength" : 221064,
            "byteOffset" : 0
        },
        {
            "buffer" : 0,
            "byteLength" : 221064,
            "byteOffset" : 221064
        },
        {
            "buffer" : 0,
            "byteLength" : 147376,
            "byteOffset" : 442128
        },
        {
            "buffer" : 0,
            "byteLength" : 139392,
            "byteOffset" : 589504
        },
        {
            "buffer" : 0,
            "byteLength" : 23808,
            "byteOffset" : 728896
        },
        {
            "buffer" : 0,
            "byteLength" : 23808,
            "byteOffset" : 752704
        },
        {
            "buffer" : 0,
            "byteLength" : 15872,
            "byteOffset" : 776512
        },
        {
            "buffer" : 0,
            "byteLength" : 5760,
            "byteOffset" : 792384
        }
    ],
    "buffers" : [
        {
            "byteLength" : 798144,
            "uri" : "data:application/octet-stream;base64,"
        }
    ]
}
