{
    "asset" : {
        "generator" : "Khronos glTF Blender I/O v1.7.33",
        "version" : "2.0"
    },
    "scene" : 0,
    "scenes" : [
        {
            "name" : "Scene",
            "nodes" : [
                0
            ]
        }
    ],
    "nodes" : [
        {
            "mesh" : 0,
            "name" : "Plane"
        }
    ],
    "meshes" : [
        {
            "name" : "Plane.001",
            "primitives" : [
                {
                    "attributes" : {
                        "POSITION" : 0,
                        "NORMAL" : 1,
                        "TEXCOORD_0" : 2
                    },
                    "indices" : 3
                }
            ]
        }
    ],
    "accessors" : [
        {
            "bufferView" : 0,
            "componentType" : 5126,
            "count" : 19655,
            "max" : [
                0.5,
                0.5,
                0
            ],
            "min" : [
                -0.5,
                -0.24242424964904785,
                0
            ],
            "type" : "VEC3"
        },
        {
            "bufferView" : 1,
            "componentType" : 5126,
            "count" : 19655,
            "type" : "VEC3"
        },
        {
            "bufferView" : 2,
            "componentType" : 5126,
            "count" : 19655,
            "type" : "VEC2"
        },
        {
            "bufferView" : 3,
            "componentType" : 5123,
            "count" : 77616,
            "type" : "SCALAR"
        }
    ],
    "bufferViews" : [
        {
            "buffer" : 0,
            "byteLength" : 235860,
            "byteOffset" : 0
        },
        {
            "buffer" : 0,
            "byteLength" : 235860,
            "byteOffset" : 235860
        },
        {
            "buffer" : 0,
            "byteLength" : 157240,
            "byteOffset" : 471720
        },
        {
            "buffer" : 0,
            "byteLength" : 155232,
            "byteOffset" : 628960
        }
    ],
    "buffers" : [
        {
            "byteLength" : 784192,
            "uri" : "data:application/octet-stream;base64,"
        }
    ]
}
