{
    "asset" : {
        "generator" : "Khronos glTF Blender I/O v1.7.33",
        "version" : "2.0"
    },
    "scene" : 0,
    "scenes" : [
        {
            "name" : "Scene",
            "nodes" : [
                0
            ]
        }
    ],
    "nodes" : [
        {
            "mesh" : 0,
            "name" : "Cube"
        }
    ],
    "meshes" : [
        {
            "name" : "Cube.001",
            "primitives" : [
                {
                    "attributes" : {
                        "POSITION" : 0,
                        "NORMAL" : 1,
                        "TEXCOORD_0" : 2
                    },
                    "indices" : 3
                }
            ]
        }
    ],
    "accessors" : [
        {
            "bufferView" : 0,
            "componentType" : 5126,
            "count" : 2284,
            "max" : [
                0.19228146970272064,
                0.19225282967090607,
                0.19225835800170898
            ],
            "min" : [
                -0.1922435164451599,
                -0.1922721564769745,
                -0.19226662814617157
            ],
            "type" : "VEC3"
        },
        {
            "bufferView" : 1,
            "componentType" : 5126,
            "count" : 2284,
            "type" : "VEC3"
        },
        {
            "bufferView" : 2,
            "componentType" : 5126,
            "count" : 2284,
            "type" : "VEC2"
        },
        {
            "bufferView" : 3,
            "componentType" : 5123,
            "count" : 2301,
            "type" : "SCALAR"
        }
    ],
    "bufferViews" : [
        {
            "buffer" : 0,
            "byteLength" : 27408,
            "byteOffset" : 0
        },
        {
            "buffer" : 0,
            "byteLength" : 27408,
            "byteOffset" : 27408
        },
        {
            "buffer" : 0,
            "byteLength" : 18272,
            "byteOffset" : 54816
        },
        {
            "buffer" : 0,
            "byteLength" : 4602,
            "byteOffset" : 73088
        }
    ],
    "buffers" : [
        {
            "byteLength" : 77692,
            "uri" : "data:application/octet-stream;base64,"
        }
    ]
}
